<svg width="16" height="16" viewBox="0 0 16 16" fill="none" xmlns="http://www.w3.org/2000/svg">
<path fill-rule="evenodd" clip-rule="evenodd" d="M7.99998 13.3333C10.9455 13.3333 13.3333 10.9455 13.3333 7.99998C13.3333 5.05446 10.9455 2.66665 7.99998 2.66665C5.05446 2.66665 2.66665 5.05446 2.66665 7.99998C2.66665 10.9455 5.05446 13.3333 7.99998 13.3333ZM7.99998 14.6666C11.6819 14.6666 14.6666 11.6819 14.6666 7.99998C14.6666 4.31808 11.6819 1.33331 7.99998 1.33331C4.31808 1.33331 1.33331 4.31808 1.33331 7.99998C1.33331 11.6819 4.31808 14.6666 7.99998 14.6666Z" fill="#A7B1BC"/>
<path fill-rule="evenodd" clip-rule="evenodd" d="M7.99998 4C8.36817 4 8.66665 4.29848 8.66665 4.66667V7.72386L10.1381 9.19526C10.3984 9.45561 10.3984 9.87772 10.1381 10.1381C9.8777 10.3984 9.45559 10.3984 9.19524 10.1381L7.52858 8.4714C7.40355 8.34638 7.33331 8.17681 7.33331 8V4.66667C7.33331 4.29848 7.63179 4 7.99998 4Z" fill="#A7B1BC"/>
</svg>
