<svg width="20" height="20" viewBox="0 0 20 20" fill="none" xmlns="http://www.w3.org/2000/svg">
<path d="M3.33464 15.4167H4.16797V16.6667C4.16797 16.9 4.3513 17.0833 4.58464 17.0833C4.81797 17.0833 5.0013 16.9 5.0013 16.6667V15.4167H5.83464C6.06797 15.4167 6.2513 15.2333 6.2513 15V8.33333C6.2513 8.1 6.06797 7.91667 5.83464 7.91667H5.0013V6.66667C5.0013 6.43333 4.81797 6.25 4.58464 6.25C4.3513 6.25 4.16797 6.43333 4.16797 6.66667V7.91667H3.33464C3.1013 7.91667 2.91797 8.1 2.91797 8.33333V15C2.91797 15.2333 3.1013 15.4167 3.33464 15.4167ZM3.7513 8.75H5.41797V14.5833H3.7513V8.75ZM7.5013 12.0833H8.33464V13.3333C8.33464 13.5667 8.51797 13.75 8.7513 13.75C8.98464 13.75 9.16797 13.5667 9.16797 13.3333V12.0833H10.0013C10.2346 12.0833 10.418 11.9 10.418 11.6667V5C10.418 4.76667 10.2346 4.58333 10.0013 4.58333H9.16797V3.33333C9.16797 3.1 8.98464 2.91667 8.7513 2.91667C8.51797 2.91667 8.33464 3.1 8.33464 3.33333V4.58333H7.5013C7.26797 4.58333 7.08464 4.76667 7.08464 5V11.6667C7.08464 11.9 7.26797 12.0833 7.5013 12.0833ZM7.91797 5.41667H9.58464V11.25H7.91797V5.41667ZM11.668 13.75H12.5013V15C12.5013 15.2333 12.6846 15.4167 12.918 15.4167C13.1513 15.4167 13.3346 15.2333 13.3346 15V13.75H14.168C14.4013 13.75 14.5846 13.5667 14.5846 13.3333V6.66667C14.5846 6.43333 14.4013 6.25 14.168 6.25H13.3346V5C13.3346 4.76667 13.1513 4.58333 12.918 4.58333C12.6846 4.58333 12.5013 4.76667 12.5013 5V6.25H11.668C11.4346 6.25 11.2513 6.43333 11.2513 6.66667V13.3333C11.2513 13.5667 11.4346 13.75 11.668 13.75ZM12.0846 7.08333H13.7513V12.9167H12.0846V7.08333ZM18.3346 2.91667H17.5013V1.66667C17.5013 1.43333 17.318 1.25 17.0846 1.25C16.8513 1.25 16.668 1.43333 16.668 1.66667V2.91667H15.8346C15.6013 2.91667 15.418 3.1 15.418 3.33333V10C15.418 10.2333 15.6013 10.4167 15.8346 10.4167H16.668V11.6667C16.668 11.9 16.8513 12.0833 17.0846 12.0833C17.318 12.0833 17.5013 11.9 17.5013 11.6667V10.4167H18.3346C18.568 10.4167 18.7513 10.2333 18.7513 10V3.33333C18.7513 3.1 18.568 2.91667 18.3346 2.91667ZM17.918 9.58333H16.2513V3.75H17.918V9.58333Z" fill="#737A91"/>
<path d="M18.3333 17.9167H2.08333V1.66667C2.08333 1.43333 1.9 1.25 1.66667 1.25C1.43333 1.25 1.25 1.43333 1.25 1.66667V18.3333C1.25 18.5667 1.43333 18.75 1.66667 18.75H18.3333C18.5667 18.75 18.75 18.5667 18.75 18.3333C18.75 18.1 18.5667 17.9167 18.3333 17.9167Z" fill="#737A91"/>
</svg>
