<svg width="32" height="32" viewBox="0 0 32 32" fill="none" xmlns="http://www.w3.org/2000/svg">
<path fill-rule="evenodd" clip-rule="evenodd" d="M4.80005 8.00002C4.80005 7.11637 5.51639 6.40002 6.40005 6.40002H25.6C26.4837 6.40002 27.2001 7.11637 27.2001 8.00002C27.2001 8.88368 26.4837 9.60002 25.6 9.60002H6.40005C5.51639 9.60002 4.80005 8.88368 4.80005 8.00002Z" fill="#737A91"/>
<path fill-rule="evenodd" clip-rule="evenodd" d="M4.80005 16C4.80005 15.1164 5.51639 14.4 6.40005 14.4H16C16.8837 14.4 17.6 15.1164 17.6 16C17.6 16.8837 16.8837 17.6 16 17.6H6.40005C5.51639 17.6 4.80005 16.8837 4.80005 16Z" fill="#737A91"/>
<path fill-rule="evenodd" clip-rule="evenodd" d="M4.80005 24C4.80005 23.1164 5.51639 22.4 6.40005 22.4H25.6C26.4837 22.4 27.2001 23.1164 27.2001 24C27.2001 24.8837 26.4837 25.6 25.6 25.6H6.40005C5.51639 25.6 4.80005 24.8837 4.80005 24Z" fill="#737A91"/>
</svg>
